# xmcd
#
# Track frame offsets:
#	150
#	12447
#	25137
#	41356
#	58485
#	76186
#	89958
#	104261
#	120342
#	133101
#
# Disc length: 1984 seconds
#
# Revision: 2
# Processed by: cddbd v1.5.2PL0 Copyright (c) Steve Scherf et al.
# Submitted via: EZCDAudioConverter 5.0.0.1
#
DISCID=8107be0a
DTITLE=Dolly Parton - Pure and Simple
DYEAR=2016
DGENRE=Country
TTITLE0=Pure and Simple
TTITLE1=Say Forever You'll Be Mine
TTITLE2=Never Not Love You
TTITLE3=Kiss It (and Make It All Better)
TTITLE4=Can't Be That Wrong
TTITLE5=Outside Your Door
TTITLE6=Tomorrow Is Forever
TTITLE7=I'm Sixteen
TTITLE8=Head Over High Heels
TTITLE9=Forever Love
EXTD=
EXTT0=
EXTT1=
EXTT2=
EXTT3=
EXTT4=
EXTT5=
EXTT6=
EXTT7=
EXTT8=
EXTT9=
PLAYORDER=
